<svg width="25" height="24" viewBox="0 0 25 24" fill="none" xmlns="http://www.w3.org/2000/svg">
<g clip-path="url(#clip0_305_344)">
<path d="M12.7891 7V3H2.78906V21H22.7891V7H12.7891ZM6.78906 19H4.78906V17H6.78906V19ZM6.78906 15H4.78906V13H6.78906V15ZM6.78906 11H4.78906V9H6.78906V11ZM6.78906 7H4.78906V5H6.78906V7ZM10.7891 19H8.78906V17H10.7891V19ZM10.7891 15H8.78906V13H10.7891V15ZM10.7891 11H8.78906V9H10.7891V11ZM10.7891 7H8.78906V5H10.7891V7ZM20.7891 19H12.7891V17H14.7891V15H12.7891V13H14.7891V11H12.7891V9H20.7891V19ZM18.7891 11H16.7891V13H18.7891V11ZM18.7891 15H16.7891V17H18.7891V15Z" fill="#1C6CB7"/>
</g>
<defs>
<clipPath id="clip0_305_344">
<rect width="24" height="24" fill="white" transform="translate(0.789062)"/>
</clipPath>
</defs>
</svg>
