<svg width="25" height="24" viewBox="0 0 25 24" fill="none" xmlns="http://www.w3.org/2000/svg">
<g clip-path="url(#clip0_305_354)">
<path d="M19.7091 2.01C19.5091 1.42 18.9491 1 18.2891 1H7.28906C6.62906 1 6.07906 1.42 5.86906 2.01L3.78906 8V16C3.78906 16.55 4.23906 17 4.78906 17H5.78906C6.33906 17 6.78906 16.55 6.78906 16V15H18.7891V16C18.7891 16.55 19.2391 17 19.7891 17H20.7891C21.3391 17 21.7891 16.55 21.7891 16V8L19.7091 2.01ZM7.63906 3H17.9291L19.0091 6.11H6.55906L7.63906 3ZM19.7891 13H5.78906V8H19.7891V13Z" fill="#05CD99"/>
<path d="M8.28906 12C9.11749 12 9.78906 11.3284 9.78906 10.5C9.78906 9.67157 9.11749 9 8.28906 9C7.46064 9 6.78906 9.67157 6.78906 10.5C6.78906 11.3284 7.46064 12 8.28906 12Z" fill="#05CD99"/>
<path d="M17.2891 12C18.1175 12 18.7891 11.3284 18.7891 10.5C18.7891 9.67157 18.1175 9 17.2891 9C16.4606 9 15.7891 9.67157 15.7891 10.5C15.7891 11.3284 16.4606 12 17.2891 12Z" fill="#05CD99"/>
<path d="M7.78906 20H11.7891V18L17.7891 21H13.7891V23L7.78906 20Z" fill="#05CD99"/>
</g>
<defs>
<clipPath id="clip0_305_354">
<rect width="24" height="24" fill="white" transform="translate(0.789062)"/>
</clipPath>
</defs>
</svg>
