<svg width="23" height="19" viewBox="0 0 23 19" fill="none" xmlns="http://www.w3.org/2000/svg">
<path d="M21.7891 7.00002H16.9991L12.6191 0.44002C12.4291 0.16002 12.1091 0.0200195 11.7891 0.0200195C11.4691 0.0200195 11.1491 0.16002 10.9591 0.45002L6.57906 7.00002H1.78906C1.23906 7.00002 0.789062 7.45002 0.789062 8.00002C0.789062 8.09002 0.799062 8.18002 0.829062 8.27002L3.36906 17.54C3.59906 18.38 4.36906 19 5.28906 19H18.2891C19.2091 19 19.9791 18.38 20.2191 17.54L22.7591 8.27002L22.7891 8.00002C22.7891 7.45002 22.3391 7.00002 21.7891 7.00002ZM11.7891 2.80002L14.5891 7.00002H8.98906L11.7891 2.80002ZM18.2891 17L5.29906 17.01L3.09906 9.00002H20.4891L18.2891 17ZM11.7891 11C10.6891 11 9.78906 11.9 9.78906 13C9.78906 14.1 10.6891 15 11.7891 15C12.8891 15 13.7891 14.1 13.7891 13C13.7891 11.9 12.8891 11 11.7891 11Z" fill="#01B574"/>
</svg>
