<svg width="29" height="28" viewBox="0 0 29 28" fill="none" xmlns="http://www.w3.org/2000/svg">
<g clip-path="url(#clip0_305_525)">
<path fill-rule="evenodd" clip-rule="evenodd" d="M20.2373 15.3183C21.8356 16.4033 22.9556 17.8733 22.9556 19.8333V23.3333H26.4556C27.0973 23.3333 27.6223 22.8083 27.6223 22.1667V19.8333C27.6223 17.29 23.4573 15.785 20.2373 15.3183Z" fill="white"/>
<path d="M11.289 13.9998C13.8664 13.9998 15.9557 11.9104 15.9557 9.3331C15.9557 6.75577 13.8664 4.66643 11.289 4.66643C8.71171 4.66643 6.62238 6.75577 6.62238 9.3331C6.62238 11.9104 8.71171 13.9998 11.289 13.9998Z" fill="white"/>
<path fill-rule="evenodd" clip-rule="evenodd" d="M18.289 13.9998C20.8674 13.9998 22.9557 11.9114 22.9557 9.3331C22.9557 6.75476 20.8674 4.66643 18.289 4.66643C17.7407 4.66643 17.2274 4.7831 16.7374 4.94643C17.7057 6.1481 18.289 7.67643 18.289 9.3331C18.289 10.9898 17.7057 12.5181 16.7374 13.7198C17.2274 13.8831 17.7407 13.9998 18.289 13.9998Z" fill="white"/>
<path fill-rule="evenodd" clip-rule="evenodd" d="M11.289 15.1665C8.17402 15.1665 1.95569 16.7298 1.95569 19.8331V22.1665C1.95569 22.8081 2.48069 23.3331 3.12236 23.3331H19.4557C20.0974 23.3331 20.6224 22.8081 20.6224 22.1665V19.8331C20.6224 16.7298 14.404 15.1665 11.289 15.1665Z" fill="white"/>
</g>
<defs>
<clipPath id="clip0_305_525">
<rect width="28" height="28" fill="white" transform="translate(0.789062)"/>
</clipPath>
</defs>
</svg>
