<svg width="290" height="146" viewBox="0 0 290 146" fill="none" xmlns="http://www.w3.org/2000/svg">
<rect x="273.335" y="145.578" width="145.578" height="15.9091" rx="7.95454" transform="rotate(-90 273.335 145.578)" fill="#E9EDF7"/>
<rect x="273.334" y="145.578" width="34.7148" height="15.9091" rx="7.95456" transform="rotate(-90 273.334 145.578)" fill="#4318FF"/>
<rect x="227.88" y="145.578" width="145.578" height="15.909" rx="7.95448" transform="rotate(-90 227.88 145.578)" fill="#E9EDF7"/>
<rect x="227.88" y="145.578" width="132.14" height="15.9091" rx="7.95454" transform="rotate(-90 227.88 145.578)" fill="#4318FF"/>
<rect x="182.425" y="145.578" width="145.578" height="15.9091" rx="7.95453" transform="rotate(-90 182.425 145.578)" fill="#E9EDF7"/>
<rect x="182.425" y="145.578" width="100.785" height="15.909" rx="7.95452" transform="rotate(-90 182.425 145.578)" fill="#4318FF"/>
<rect x="136.971" y="145.578" width="145.578" height="15.9091" rx="7.95454" transform="rotate(-90 136.971 145.578)" fill="#E9EDF7"/>
<rect x="136.971" y="145.578" width="75.0287" height="15.9091" rx="7.95455" transform="rotate(-90 136.971 145.578)" fill="#4318FF"/>
<rect x="91.5164" y="145.578" width="145.578" height="15.9091" rx="7.95454" transform="rotate(-90 91.5164 145.578)" fill="#E9EDF7"/>
<rect x="91.5164" y="145.578" width="119.822" height="15.9091" rx="7.95455" transform="rotate(-90 91.5164 145.578)" fill="#4318FF"/>
<rect x="46.0619" y="145.578" width="145.578" height="15.9091" rx="7.95454" transform="rotate(-90 46.0619 145.578)" fill="#E9EDF7"/>
<rect x="46.0619" y="145.578" width="60.4709" height="15.9091" rx="7.95455" transform="rotate(-90 46.0619 145.578)" fill="#4318FF"/>
<rect x="0.6073" y="145.578" width="145.578" height="15.9091" rx="7.95454" transform="rotate(-90 0.6073 145.578)" fill="#E9EDF7"/>
<rect x="0.6073" y="145.578" width="86.227" height="15.9091" rx="7.95455" transform="rotate(-90 0.6073 145.578)" fill="#4318FF"/>
</svg>
