<svg width="25" height="24" viewBox="0 0 25 24" fill="none" xmlns="http://www.w3.org/2000/svg">
<g clip-path="url(#clip0_305_378)">
<path d="M6.78906 10C5.68906 10 4.78906 10.9 4.78906 12C4.78906 13.1 5.68906 14 6.78906 14C7.88906 14 8.78906 13.1 8.78906 12C8.78906 10.9 7.88906 10 6.78906 10ZM18.7891 10C17.6891 10 16.7891 10.9 16.7891 12C16.7891 13.1 17.6891 14 18.7891 14C19.8891 14 20.7891 13.1 20.7891 12C20.7891 10.9 19.8891 10 18.7891 10ZM12.7891 10C11.6891 10 10.7891 10.9 10.7891 12C10.7891 13.1 11.6891 14 12.7891 14C13.8891 14 14.7891 13.1 14.7891 12C14.7891 10.9 13.8891 10 12.7891 10Z" fill="white"/>
</g>
<defs>
<clipPath id="clip0_305_378">
<rect width="24" height="24" fill="white" transform="translate(0.789062)"/>
</clipPath>
</defs>
</svg>
